/* XPM */
static char *noname[] = {
/* width height ncolors chars_per_pixel */
"32 32 10 1",
/* colors */
"` c #B8B1BE",
"a c #282E4B",
"b c #A792A6",
"c c #535271",
"d c #68708F",
"e c #FCF6EB",
"f c #818FA7",
"g c #070713",
"h c #887691",
"i c #DBCCD1",
/* pixels */
"gggggggggggggggggggggggggggggggg",
"gggggggggggggggggggggggggggggggg",
"gggggggggggggggggggggggggggggggg",
"gggggggggggggggggggggggggggggggg",
"gggggggggggggggggggggggggggggggg",
"gggggggggggggggggggggggggggggggg",
"gggggggggggggggggggggggggggggggg",
"ggaggggagggggggggggggggggggggggg",
"aaaacaaaaagggagggggggggggggggggg",
"agaaccccacaaaaaagggggggggggggggg",
"aacchddcccdcdaaaaaggggaggggggggg",
"aaacchcdcddfdfdcccaaagaggggggggg",
"achccccccchdhfffddcccaaagagggggg",
"gacchcccccccdfbb```fdccaaagggggg",
"ggacchccccccchb``iii``fdcaaagggg",
"gggaachhchhhhb`iiiiii```ffcaaaga",
"gggggachhhbbbieeeeeeiiii``fdcaag",
"ggggggaacbcbieeeeeeii``i`i``ddaa",
"gggggggaadbb`ieeeee`b````i```fda",
"ggggggggaachi``ieeihhb```i````fd",
"gggggggagaacah``hbhccfbfff`````f",
"ggggggggagaaccch`bhhcddddfff`f`f",
"ggggggggggggaccacdhdfddfddffff`f",
"gggggggggggagaaacccccdcddddfffff",
"gggggggggggggggaaacacccdcccdddfd",
"gggggggggggggggagaaaaaaaaccddfdf",
"ggggggggggggggggagaaaaaaaaaaacca",
"gggggggggggggggggaggagaaagaagaga",
"gggggggggggggggggggggggggaaaagag",
"gggggggggggggggggggggggggggggggg",
"ggggggggggggggggggggggggggggggag",
"gggggggggggggggggggggggggggggggg"
};
