/* XPM */
static char * konqueror_xpm[] = {
"32 32 227 2",
"  	c None",
". 	c #1A1E1F",
"+ 	c #1A1A24",
"@ 	c #1E1A1F",
"# 	c #161A1C",
"$ 	c #1D1E2D",
"% 	c #302E3C",
"& 	c #1E2624",
"* 	c #161E1C",
"= 	c #1A221D",
"- 	c #16221C",
"; 	c #3A3644",
"> 	c #161619",
", 	c #262A3C",
"' 	c #2A2A38",
") 	c #1C1A2C",
"! 	c #1E2226",
"~ 	c #22222B",
"{ 	c #363641",
"] 	c #2E3234",
"^ 	c #212E3A",
"/ 	c #2E363C",
"( 	c #100E11",
"_ 	c #2E2A38",
": 	c #282E3F",
"< 	c #121618",
"[ 	c #262630",
"} 	c #121217",
"| 	c #0A0E10",
"1 	c #09060B",
"2 	c #1A1218",
"3 	c #2E3E4C",
"4 	c #2F3646",
"5 	c #263640",
"6 	c #312639",
"7 	c #383A4C",
"8 	c #26424C",
"9 	c #365254",
"0 	c #222A38",
"a 	c #111A24",
"b 	c #122230",
"c 	c #6C7E90",
"d 	c #3A1A34",
"e 	c #665E7C",
"f 	c #887E98",
"g 	c #82829C",
"h 	c #706A88",
"i 	c #484A58",
"j 	c #585674",
"k 	c #52566C",
"l 	c #324254",
"m 	c #425264",
"n 	c #162634",
"o 	c #323A48",
"p 	c #2A2634",
"q 	c #060A0C",
"r 	c #0A0A0B",
"s 	c #161A28",
"t 	c #46425C",
"u 	c #2A1A34",
"v 	c #6E526C",
"w 	c #A292AC",
"x 	c #A49AA4",
"y 	c #7A7E98",
"z 	c #726E8C",
"A 	c #828EA4",
"B 	c #8E96AF",
"C 	c #AAAAC4",
"D 	c #4E6A84",
"E 	c #465264",
"F 	c #3F4A5C",
"G 	c #0E1E24",
"H 	c #422A4C",
"I 	c #7A6A7C",
"J 	c #908694",
"K 	c #564664",
"L 	c #462E44",
"M 	c #6E5E7C",
"N 	c #4C3E5C",
"O 	c #8A768C",
"P 	c #8E8294",
"Q 	c #9E8AA4",
"R 	c #BEBAD4",
"S 	c #C2B2C0",
"T 	c #8A8EA4",
"U 	c #7A7EA4",
"V 	c #5A6E84",
"W 	c #162230",
"X 	c #161E24",
"Y 	c #5A4E6C",
"Z 	c #7B6E8C",
"` 	c #4F4E69",
" .	c #5E6A84",
"..	c #423254",
"+.	c #D6C2D4",
"@.	c #DECADC",
"#.	c #DECED4",
"$.	c #C6D2DC",
"%.	c #92A6B4",
"&.	c #5E7A8C",
"*.	c #3E5A6C",
"=.	c #3A3E54",
"-.	c #22262C",
";.	c #221627",
">.	c #5C4A68",
",.	c #786684",
"'.	c #B2AABC",
").	c #4A3654",
"!.	c #96869C",
"~.	c #6A5674",
"{.	c #CEB6C4",
"].	c #EAD6E4",
"^.	c #F6E2EC",
"/.	c #F6EAF0",
"(.	c #F0E6EC",
"_.	c #DAD6E4",
":.	c #C6C6DC",
"<.	c #A0AAC0",
"[.	c #323E54",
"}.	c #161224",
"|.	c #2A1234",
"1.	c #564264",
"2.	c #B6AEBC",
"3.	c #B2A2B4",
"4.	c #AE96AC",
"5.	c #E2DEE4",
"6.	c #FEFEFC",
"7.	c #FAF6F4",
"8.	c #EADEE4",
"9.	c #DED2E0",
"0.	c #EAE2E4",
"a.	c #D6D2E0",
"b.	c #D2DAEC",
"c.	c #B2C6DC",
"d.	c #75869F",
"e.	c #42465C",
"f.	c #2A3644",
"g.	c #463E50",
"h.	c #1A161C",
"i.	c #322234",
"j.	c #291E39",
"k.	c #423A54",
"l.	c #6E666C",
"m.	c #AA9AA4",
"n.	c #A08EA4",
"o.	c #FEFAFC",
"p.	c #DAD2DC",
"q.	c #BACAD4",
"r.	c #8096AC",
"s.	c #4E5A74",
"t.	c #1F2234",
"u.	c #24323C",
"v.	c #1A1624",
"w.	c #4E465C",
"x.	c #5E5274",
"y.	c #CAC6CC",
"z.	c #BAA6B4",
"A.	c #EAE6EC",
"B.	c #CAAEBC",
"C.	c #7E627C",
"D.	c #9E92A4",
"E.	c #C6BECC",
"F.	c #9A8EAC",
"G.	c #DEE2F4",
"H.	c #D0CAD8",
"I.	c #67768C",
"J.	c #4A3A5C",
"K.	c #0E1218",
"L.	c #443E5C",
"M.	c #8E8A94",
"N.	c #C6AEB4",
"O.	c #9E7E8C",
"P.	c #563E5C",
"Q.	c #A6A2B4",
"R.	c #9AA2B4",
"S.	c #AABEC4",
"T.	c #CAC2D4",
"U.	c #C6D6DC",
"V.	c #94B2BC",
"W.	c #0E161C",
"X.	c #0E0E1C",
"Y.	c #212634",
"Z.	c #52526C",
"`.	c #C6BACC",
" +	c #AAB2B4",
".+	c #6A7A94",
"++	c #5E6684",
"@+	c #7A7694",
"#+	c #565A64",
"$+	c #A2B2C4",
"%+	c #AAB2CC",
"&+	c #9AAEB4",
"*+	c #B6C6CC",
"=+	c #0E0A12",
"-+	c #0A0A14",
";+	c #120A12",
">+	c #0A0614",
",+	c #666E8C",
"'+	c #5E627C",
")+	c #8292A4",
"!+	c #8CA6B4",
"~+	c #8A9EB4",
"{+	c #8EAEBC",
"]+	c #0E0608",
"^+	c #36425C",
"/+	c #727E94",
"(+	c #687288",
"_+	c #72769C",
":+	c #5A5A74",
"<+	c #767694",
"[+	c #666684",
"}+	c #1E2A34",
"|+	c #2A3A44",
"1+	c #465A64",
"2+	c #363E50",
"3+	c #748E9C",
"4+	c #7AA29C",
"5+	c #A2AEB4",
"6+	c #0E0A1C",
"7+	c #1A222E",
"8+	c #384650",
"9+	c #1A2631",
"0+	c #465668",
"a+	c #0E0614",
"b+	c #060204",
"c+	c #16121A",
"d+	c #121624",
". + + . + @ @ + # + + + . # + + # + + + @ @ # + + @ . + @ $ . + ",
"# . % & * * . = * * . . . * . . * . * * * = . - * . * - * . . + ",
"@ * * . = = = . = = - * = * - = = * = = = * * . = - = . = = - + ",
". . + + + + . + + @ . + + ; > + . + + + @ , ' + @ + . ) + + . + ",
"@ = = = - - * - = - . * * * = . . . * - * * * = - = . - - . - + ",
"# * $ . . $ ! % . = ~ = . $ - . ! = @ = { + . . $ = . $ = . * + ",
"@ . + . . . . + . * + . * + . # + . * + . # . * + + * @ + . . . ",
". - . = + * = * . . * @ = . ! = . . - . . . ! . - ! # ] + . * + ",
"# ! . @ . $ * $ @ . = = . . + * . + . . . * + . . + * ~ * = . @ ",
"# ~ & ^ / ( _ : < [ } | 1 @ 2 # ; + . * . = * + . = . . + . * + ",
"@ 3 4 5 6 7 8 9 0 a b } / : ~ > * . = ! . $ = = ! . ! ! ! . = + ",
"@ c d e f g h i j k l m 5 n & o ! | [ ~ $ . ( p @ ( q 1 r ( + + ",
"s t u 7 v w x y z A B C c D E 4 F ( G 0 7 $ . > ! > > > < < % + ",
"+ H I J K h L M N O P Q R S T U V E F W X G : | ( * = - & . @ @ ",
"+ | 6 I O Q Y Z `  ...Y z S +.@.#.$.%.&.*.=., -.-.< } # ~ * < + ",
"+ } ;.H >.,.'.,.).!.~.>.v Q {.].^./.(._.:.<.V [.s * & { 1 | = . ",
"+ 1 6 }.;.|.1.2.3.4.#.S 5.6.6.6.7.7.8.9.0.a.b.c.d.e.& f.g.* . @ ",
"# | h.@ ..i.j.k.l.m.J n.o.6.6.6.6.(.].p.:.(.5._.q.r.s.t.u.= * + ",
"@ r } r ( ( v.j.w.x.x y.z.+.5.A./.B.C.D.E.F.#.G._.H.$.I.J.: # @ ",
". ( . + K.K.[ ;.[ L.t i M.N.n.4.O.P.=.Q.'.B R.a.S.T.U.V.d.] W.@ ",
"@ ( h.( < ~ X.q Y._ { =.Z.k.Z `.2.R. +d..+++@+#+$+%+V.&+*+m u.# ",
"+ 1 =+-+;+=+>+-+} } G [ e.Z.k 4 ,+'+I. .)+!+~+r.{+%.B <.S.d.` @ ",
"+ -+]+>+>+]+=+;+>+} < : a : 0 ^+w.i e./+(+_+'+(+I.(+@+:+<+[+0 + ",
"+ =+1 ; >+-+-+=+} > -+( r ! & }+|+1+4 Y.2+& 4 9 3+4+c.5+c c E . ",
"+ >+=+>+q =+6+=+=+} K.h.. r 4 Y.! 7+u.}+^+: u.7+X ( 8+K.l o b + ",
"+ 1 r ;+;+]+-+-+> > } h.[ } } ( ~ } < 7+9+u.W ^ 0+^+W # Y.} < @ ",
". =+a+-+-+;+=+=+>+=+-+r ]+]+=+=+=+;+>+W.-+;+=+=+b+7+c+d+} h.1 + ",
"@ -+;+=+-+-+=+=+-+-+=+-+-+>+=+a+-+=+]+6+-+-+-+-+-+>+1 1 }.j.r . ",
"@ >+>+-+;+=+=+=+a+( ;+=+;+-+]+=+a+-+=+-+;+>+v.>+-+-+=+;+r r ]+@ ",
". r =+r =+-+=+r ;+> }.r =+-+=+=+=+=+]+>+=+]+~ ;+=+=+-+r ;+-+=+. ",
"@ >+a+-+]+1 =+=+a+]+>+1 >+r >+-+a+>+c+' >+=+>+>+-+=+-+>+]+=+]+@ ",
"# + + + + + + + . @ @ . + . + + . + + + @ + . + @ @ $ . + + @ + "};
