/* XPM */
static char*konquest[]={
"32 32 8 1",
"b c #808080",
"c c #a0a0a4",
"d c #c0c0c0",
"# c #404000",
". c #000000",
"a c #585858",
"e c #dcdcdc",
"f c #ffffff",
"................................",
"................................",
"................................",
"................................",
"................................",
"................................",
"................................",
"..#....#........................",
".#.#a#####...#..................",
"#.##aaaa#a###.##................",
".#aabbbaaabab#####....#.........",
"###babababbcbcbaaa###.#.........",
"#abababababbbcccbbaaa###.#......",
".#abbbabababbcccdddcbaa###......",
"..#aabaababaabcddeeeddcba###....",
"...##abbabbbbcdeeeeeedddcca###.#",
".....#abbbccceffffffeeeeddbba##.",
"......##acaceffffffeeddededdbb##",
".......##bccdefffffdcddddedddbb#",
"........##abeddeffebbcdddeddddbb",
".......#.##a#bddbcbaacccccdddddc",
"........#.##aaaadcbbabbbbcccdcdc",
"............#aa#abbbcbbcbbccccdc",
"...........#.##.aaaaababbbbccccc",
"...............###a#aaabaaabbbcb",
"...............#.##.#####aabbcbc",
"................#.##.#.#.####aa#",
".................#..#.#.#.##.#.#",
".........................####.#.",
"................................",
"..............................#.",
"................................"};
