/* XPM */
static char * large_konqueror_xpm[] = {
"48 48 244 2",
"  	c None",
". 	c #16161A",
"+ 	c #161A1C",
"@ 	c #3E3A46",
"# 	c #181624",
"$ 	c #3C3648",
"% 	c #1E1B31",
"& 	c #1E1D22",
"* 	c #1E1527",
"= 	c #0A0607",
"- 	c #231E29",
"; 	c #030204",
"> 	c #2B2A3B",
", 	c #2A2238",
"' 	c #322D47",
") 	c #060608",
"! 	c #26262C",
"~ 	c #0F0A0F",
"{ 	c #090A0B",
"] 	c #23222A",
"^ 	c #121A25",
"/ 	c #1B2230",
"( 	c #121E27",
"_ 	c #465E74",
": 	c #2C444C",
"< 	c #2D3644",
"[ 	c #242A3D",
"} 	c #161218",
"| 	c #1C2635",
"1 	c #3E4E5C",
"2 	c #152230",
"3 	c #101213",
"4 	c #171E2C",
"5 	c #38465C",
"6 	c #46445C",
"7 	c #160D19",
"8 	c #301A36",
"9 	c #4A4A60",
"0 	c #3A4A5C",
"a 	c #0D121D",
"b 	c #242534",
"c 	c #2E3E4C",
"d 	c #262E3C",
"e 	c #617A89",
"f 	c #361E34",
"g 	c #3E2A48",
"h 	c #5A4E6C",
"i 	c #6F627F",
"j 	c #77859C",
"k 	c #686484",
"l 	c #5E5E7C",
"m 	c #423A54",
"n 	c #404A5C",
"o 	c #524A69",
"p 	c #343E56",
"q 	c #0A0E0C",
"r 	c #333E4C",
"s 	c #1A1E24",
"t 	c #0F0E13",
"u 	c #33263F",
"v 	c #686B84",
"w 	c #654E6C",
"x 	c #A896AC",
"y 	c #847A94",
"z 	c #A29EB4",
"A 	c #777B94",
"B 	c #6A7A91",
"C 	c #64728E",
"D 	c #8D95B1",
"E 	c #667C94",
"F 	c #768EAC",
"G 	c #385254",
"H 	c #3A5664",
"I 	c #475263",
"J 	c #12141C",
"K 	c #0A0A14",
"L 	c #453654",
"M 	c #343248",
"N 	c #452E47",
"O 	c #1E0624",
"P 	c #4C3654",
"Q 	c #806A84",
"R 	c #9286A4",
"S 	c #837289",
"T 	c #665E78",
"U 	c #786A84",
"V 	c #76728C",
"W 	c #83869F",
"X 	c #968CA4",
"Y 	c #BAA4B4",
"Z 	c #83768F",
"` 	c #5C7284",
" .	c #6C728C",
"..	c #464B61",
"+.	c #1E2A38",
"@.	c #162634",
"#.	c #2D2E41",
"$.	c #2C3242",
"%.	c #E2EEFC",
"&.	c #4D3E5C",
"*.	c #7A6684",
"=.	c #5F5A74",
"-.	c #6E5C78",
";.	c #745E78",
">.	c #9892AC",
",.	c #8C7A94",
"'.	c #9FA5BC",
").	c #C2B6CC",
"!.	c #B7ADBF",
"~.	c #8B869C",
"{.	c #868AA8",
"].	c #727C9C",
"^.	c #627684",
"/.	c #4E5C78",
"(.	c #495667",
"_.	c #8E7E98",
":.	c #726681",
"<.	c #6A5A74",
"[.	c #7E7E9C",
"}.	c #C6AEB4",
"|.	c #CBC2D1",
"1.	c #BAB5C4",
"2.	c #C2B2BC",
"3.	c #93AEB9",
"4.	c #98AAC0",
"5.	c #353A49",
"6.	c #0D161C",
"7.	c #564664",
"8.	c #A68A9C",
"9.	c #A08298",
"0.	c #4D425C",
"a.	c #544E6C",
"b.	c #5A5B74",
"c.	c #B2A6BC",
"d.	c #D8C2CC",
"e.	c #E8D4DC",
"f.	c #E8DAE2",
"g.	c #EED6DC",
"h.	c #E1DBE0",
"i.	c #F0E6EC",
"j.	c #B6C2D8",
"k.	c #8EA2BC",
"l.	c #627E94",
"m.	c #55627C",
"n.	c #343649",
"o.	c #311E37",
"p.	c #3B2544",
"q.	c #4A3250",
"r.	c #66526C",
"s.	c #AA9EB4",
"t.	c #9E8AA4",
"u.	c #8C7288",
"v.	c #B59BAC",
"w.	c #D2BBC6",
"x.	c #F0DEE4",
"y.	c #EEE2E4",
"z.	c #D5D2DC",
"A.	c #DCCEDC",
"B.	c #CDC6D9",
"C.	c #BEBED4",
"D.	c #829EAC",
"E.	c #3D2E46",
"F.	c #342240",
"G.	c #524260",
"H.	c #9E8694",
"I.	c #DFD6DD",
"J.	c #FDF3F4",
"K.	c #FEFEFB",
"L.	c #F2EAEC",
"M.	c #B2B4CC",
"N.	c #BECEDC",
"O.	c #9EB6C4",
"P.	c #384251",
"Q.	c #CCB2BC",
"R.	c #937B8F",
"S.	c #DAD3E2",
"T.	c #CCCEDC",
"U.	c #B6BED4",
"V.	c #ACC2CC",
"W.	c #8296A8",
"X.	c #555B74",
"Y.	c #A28EA4",
"Z.	c #76627C",
"`.	c #DECAD4",
" +	c #A2AFC4",
".+	c #4D4E69",
"++	c #3A3E54",
"@+	c #5C526C",
"#+	c #BEA3AF",
"$+	c #8E6E84",
"%+	c #5E4361",
"&+	c #D6DAEC",
"*+	c #CAD2DC",
"=+	c #BABACC",
"-+	c #8DA6B1",
";+	c #565670",
">+	c #DAC6D4",
",+	c #B292A4",
"'+	c #5E5674",
")+	c #E2CED4",
"!+	c #949AB4",
"~+	c #C2C2CC",
"{+	c #AAB4C8",
"]+	c #C2CAD4",
"^+	c #CECAD4",
"/+	c #9AB2B8",
"(+	c #FEEEF4",
"_+	c #DEC2CC",
":+	c #765264",
"<+	c #2A1234",
"[+	c #8A829C",
"}+	c #A2AABC",
"|+	c #AEACC0",
"1+	c #ACBECC",
"2+	c #7A8B9F",
"3+	c #60627C",
"4+	c #AABAC4",
"5+	c #9AAAAC",
"6+	c #CADAEC",
"7+	c #2D3A4B",
"8+	c #41455C",
"9+	c #5E6684",
"0+	c #6E7692",
"a+	c #728A9C",
"b+	c #576B7C",
"c+	c #749298",
"d+	c #808EA0",
"e+	c #82A6AC",
"f+	c #9EAEBC",
"g+	c #6D8696",
"h+	c #52526C",
"i+	c #020A14",
"j+	c #463E5C",
"k+	c #6C7E94",
"l+	c #5A637C",
"m+	c #5E6A84",
"n+	c #716D89",
"o+	c #253240",
"p+	c #769A9C",
"q+	c #7EA2A4",
"r+	c #CAE2F4",
"s+	c #263644",
"t+	c #1E2E3C",
"u+	c #0C1A20",
"                                                                                                ",
"                                                                                                ",
"    . . . . . . . . . . . . . . . . . . . . . . . . . . . . . . . . . . . . . . . . . . . .     ",
"    + + + @ + + + + + + + + + + + + + + + + + + + + + + + + + + + + + + + + + + + + + + + +     ",
"    + + + + + + + + + + + + + + + + + + + + + + + + + + + + + + + + + + + + + + + + + + + .     ",
"    + + # + + + + + + + + + + + + + + + + + + + + + + + + + + + + + + + + + + + + + + + + +     ",
"    # + # # # # # # # # # # # # # # # # $ # # # # # # # # # # # $ # # # # # # # # # # # + .     ",
"    + + + + + + + + + + + + + + + + + + + + + + + + + + + + + + + + + + + + + + + + + + + +     ",
"    + + + + + + + + + + + + + + + + + + + + + + + + + + + + + + + + + + + + + + + + + # + .     ",
"    # + # % + + # % + $ % + + # % + + # % + + # % + + # % + $ # % + + # % + + # % + + + + +     ",
"    # + . # # + . # + . # # + . # # + . # # + . # # + . # + + . # # + . # # + . # # + # + .     ",
"    + + + + + + + + + + + + + + + + + + + + + + + + + + + + + + + + + + + + + + + + + + + +     ",
"    + + + + & # + # + + + & # + + * + + + & # + + & # + + * + + + & # + + & # + @ # + # + .     ",
"    * + + # . + # & + + # . + + + + + + # . + + # . + + # + + + # . + + # . + + # + + + + +     ",
"    = - = + ; > + ; , ' ) ) ! = ~ = ; { ] ~ # + @ + # + + # # + + + # + + + # + + # + # + .     ",
"    ^ / ( _ : < [ } | 1 2 [ ] / 2 + . 3 { - + + + # & + + + + + + + + + + + + + + + + + + +     ",
"    4 5 ; 6 7 8 6 9 : 1 0 [ ( 4 ( a b c d b + # + . + + & + + % # + + & # + + * + # + # + .     ",
"    | e f g h i j k l m n o 6 5 [ p 5 q 2 | ! r ^ a 3 ! ) ' ; s } t > ~ . = { t = { = 3 } )     ",
"    b n u u v w x y z A B v C D E F E G H | r # I J J ^ + [ d ^ = { ; @ + & { { = { = . ] K     ",
"    t L M N O P Q R S T U T V W X Y Z D C `  ...0 +.4 / @.< #.& $./ + q ) { + + + + + + > )     ",
"    # g N %.S &.*.=.N -.h &.;.>.S ,.'.).!.~.{.].^./.(.I +.| ^ 2 3 d K t t + + + + + + + . {     ",
"    = t O *._.Q y :.m :.y =.v o &.<.U [.}.|.).1.2.3.4.^.H 1 c 5.d [ 6.$.; + + + + #.q / { {     ",
"    t } * 8 7.w 8.9.Z 7.=.'  .0.h a.b.>.c.Y d.e.f.g.h.i.j.k.l.m.n n.n.[ ( q ; ; + } ; + + )     ",
"    { t } o.p.q.o r.s.R <.h t.u.*.;.;.u.v.w.e.f.x.i.y.f.z.A.B.C.D.E I $./ / +./ $ q { a + +     ",
"    3 ) ; E.~ * 8 F.G.x c.,.H.I.w.v.v.J.K.K.K.K.J.J.L.f.A.I.h.z.M.N.O.]./.5./ / P.L + + + t     ",
"    a { ) @ ; , 8 f g G.Q Q.R.E.2.J.x.J.K.K.K.K.K.K.i.I.A.|.S.z.S.T.U.V.W.m.X.#.+ $.= + + 3     ",
"    ) q { ) & u N } % o.L 8 Y.g.S Z.J.K.K.K.K.K.K.K.`.w.e.).C.e.h.z.I.x. +3.l..+< [ ++; + t     ",
"    { { 3 { { ) ) t } % u @+a.w `.J.e.R.h.K.K.K.K.d.#+$+%+J.!.R 1.I.&+*+S.=+T.-+;+L 5./ + q     ",
"    3 t + + { { [ K s ~ u M a.0., N >+K.}.R._.v.J.,+-.'+c.)+w.'.!+~+B.{+]+^+T./+-+j #.+.a {     ",
"    = { { # & q = q b * J s F.n.i =.F.q.Y (+_+2.:+%+' <+a.[+]. .c.A B.}+j.|+1+S.F D.I < ^ q     ",
"    = t . 3 ) + ) > ) { ; | $.# #.' =.'+, G.[+!.|.D 1+M.2+j B C 3+W c W.{+ +D.4+5+6+` n 7+6.    ",
"    K { ~ K K ~ ~ { K K K # J 2 6.7 @+8+a.h 9+M 0+2+v a+b+B -+3.c+k.d+e+4.-+W.}+'.f+g+m.h+|     ",
"    ~ K { K K K K { K { ~ i+= = | #.2 ( n.] /...6 m.j+b.9+v h+9+;+v C g+j d+{.[+3.j.k+D [ [     ",
"    K K K ~ K K ~ ~ K ~ K { J ^ = / 4 6.+.| +.7+@ X.8+7+0+l+^.0+m+;+9+a+X.B j n+.+9+0.X.[ +.    ",
"    { ~ K { @ K K { K K ~ 3 . q K t t = / ^ $.2 o+G I r d d ++o+d P.G b+e+p+V.q+r+g+X.g+..(     ",
"    K K K ~ K { K ~ K ~ K K J = ~ t { 3 t #.^ d ^ / +.^ 2 +.I b / $./ % p J ^.H > n ^.r @.4     ",
"    { K K { K { K { K { K t { J 6.t @ { ) . P.3 b 4 / r o+/ | 7+s+t+o+| | a ] ) 4 o+| 6.@.{     ",
"    K K { K ~ ~ K ~ { K K . t + = 3 & + 3 { = } s ; . ; q o+( +.u+4 ( (.7+p ^ +.3 b t # 3 a     ",
"    { ~ K K K K K ~ K ~ K K ~ K K K ~ ~ K { { { ~ { ~ K { 2 ; ~ ^ = J ~ ; o+t [ a J 3 & ) {     ",
"    ~ K ~ { K { K K ~ K { K K ~ K K K K K ~ K K { ~ K ~ K ~ ~ K ~ K K K K K K K K K ~ K { {     ",
"    K K ~ K ~ K { K { ~ K K K K ~ K { K K ~ K K K { K ~ K K K K K K K K K K K { ~ K $ K ~ K     ",
"    { K K { K ~ K K ~ K ~ K { ~ K K ~ ~ { K { ~ K K { K { K ~ { K ~ K K K K K ~ K { { ~ K {     ",
"    { K ~ K K ~ { K K { K K K @ { K K ~ K ~ K { ~ K { K K K ~ K { @ ~ { ~ { K K K K K { K {     ",
"    ~ { K K { K K K K K { ~ { { K { K K K K K ~ K ~ K ~ { { K ~ K { K ~ K ~ { K { ~ K K ~ K     ",
"    ~ K { ~ K ~ { { ~ ~ K ~ K ~ K { { K { K K K K ~ K ~ @ K K ~ K K K K K ~ K ~ K { ~ K { K     ",
"    K K ~ K { K ~ ~ K K K K K K ~ ~ K ~ K ~ { K { K K K K K { K ~ { K { K K ~ K K ~ K K ~ {     ",
"                                                                                                ",
"                                                                                                "};
