/* XPM */
static char*mini[]={
"16 16 8 1",
"b c #808080",
"c c #a0a0a4",
"d c #c0c0c0",
". c #404000",
"# c #000000",
"a c #585858",
"e c #dcdcdc",
"f c #ffffff",
"..###.##########",
".a...#..########",
"aabab.....####.#",
"abbcbcbaaa...#.#",
"babbbcccbbaaa...",
"ababbcccdddcbaa.",
"babaabcddeeeddcb",
"abbbbcdeeeeeeddd",
"bbccceffffffeeee",
"acaceffffffeedde",
".bccdefffffdcddd",
"..abeddeffebbcdd",
"#..a.bddbcbaaccc",
".#..aaaadcbbabbb",
"####.aa.abbbcbbc",
"###.#..#aaaaabab"};
