/* XPM */
static char *noname[] = {
/* width height ncolors chars_per_pixel */
"20 20 141 2",
/* colors */
"   c #760604",
" . c #620604",
" X c #4E0A04",
" o c #4E0604",
" O c #3A0604",
" + c #260604",
" @ c #E23204",
" # c #120604",
" $ c #E22E04",
" % c #E21E04",
" & c #CE2604",
" * c #CE1604",
" = c #CE1204",
" - c #F2AA0C",
" ; c #CE0A04",
" : c #F2A20C",
" > c #BA1204",
" , c #BA0E04",
" < c #F2960C",
" 1 c #BA0A04",
" 2 c #A60A04",
" 3 c #F2820C",
" 4 c #920E04",
" 5 c #920A04",
" 6 c #920604",
" 7 c #7E0A04",
" 8 c #6A0A04",
" 9 c #6A0604",
" 0 c #560604",
" q c #EA5204",
" w c #420604",
" e c #EA4604",
" r c #EA4204",
" t c #EA3A04",
" y c #EA3604",
" u c #D63E04",
" i c #1A0604",
" p c #060604",
" a c #D61A04",
" s c #C22604",
" d c #D60E04",
" f c #AE1E04",
" g c #C20E04",
" h c #AE1A04",
" j c #C20A04",
" k c #AE1604",
" l c #AE0E04",
" z c #AE0A04",
" x c #9A0E04",
" c c #9A0A04",
" v c #860A04",
" b c #860604",
" n c #F27204",
" m c #720A04",
" M c #720604",
" N c #5E0A04",
" B c #F25A04",
" V c #5E0604",
" C c #4A0604",
" Z c #F24604",
" A c #360604",
" S c #DE4604",
" D c #220604",
" F c #0E0604",
" G c #DE2604",
" H c #F6BA14",
" J c #DE1A04",
" K c #CA1204",
" L c #CA0E04",
" P c #B60E04",
" I c #8E2604",
" U c #B60A04",
" Y c #A20A04",
" T c #A20604",
" R c #8E0A04",
" E c #8E0604",
" W c #7A0E04",
" Q c #7A0A04",
" ! c #7A0604",
" ~ c #660A04",
" ^ c #660604",
" / c #520A04",
" ( c #520604",
" ) c #3E0604",
" _ c #2A0A04",
" ` c #2A0604",
" ' c #D24604",
" ] c #160604",
" [ c #E62A04",
" { c #F2C21C",
" } c #E62204",
" | c #020604",
".  c #020204",
".. c #D21E04",
".X c #D21A04",
".o c #D21604",
".O c #BE1E04",
".+ c #D20E04",
".@ c #BE1604",
".# c #BE1204",
".$ c #BE0E04",
".% c #BE0A04",
".& c #AA0E04",
".* c #AA0A04",
".= c #AA0604",
".- c #960A04",
".; c #820A04",
".: c #6E0A04",
".> c #6E0604",
"., c #EE6604",
".< c #E2660C",
".1 c #EE6204",
".2 c #5A0A04",
".3 c #EE5A04",
".4 c #5A0604",
".5 c #EE5604",
".6 c #460A04",
".7 c #460604",
".8 c #EE3E04",
".9 c #320604",
".0 c #EE3604",
".q c #EE3204",
".w c #1E0604",
".e c #0A0604",
".r c #DA1E04",
".t c #DA1A04",
".y c #DA1204",
".u c #C61604",
".i c #F2A214",
".p c #C61204",
".a c #C60E04",
".s c #C60A04",
".d c #B21604",
".f c #B20E04",
".g c #B20A04",
".h c #9E0A04",
".j c #9E0604",
".k c #F27614",
".l c #8A0A04",
".z c #8A0604",
".x c #760E04",
/* pixels */
" p p p | | p p p ] ` D F p p p | | | p p",
". . . . .  _ m 5 c.-.; M o.w. . . . . . ",
" | | p p.2 l , 5.f l.- ! w . ( + p | | |",
". . .  C v.l M R ,.p 1 v M.4 o 0 (. . . ",
" p p.9.> O ` (.d.t a , , 5 ~ E   z X p |",
".  # C   ~ 0.4.2.p Y 7 / 9 2 l ..7 z i. ",
".  (.:.9.2 9.7.9 O ) w.4 D.2 8 m.w v N |",
" i  .l.4 C 0 D.7.x.; E.z V 2 x z b.; 6. ",
" O.2 m.- ( M.6 w h.l > 1.h 4 % * * =.+ D",
" X b c.l R.u.. f.d s.<.<.X a.q Z.q.a g O",
" ).> Y 2 K P.* G.1 - { : r a.8 <.k G.h O",
" `.g E.- J.r.r t 3.i - H n t 3 < H.3.@ D",
" # , 8.6 l W P.$ = = $ q ' u.5.i., n S p",
".  Q.z.z.= N U L.s T ! & k } B.5 e [ I. ",
" p _.4.$.* x.g 1.s b V.& y.q.t.0 @.O i. ",
". .  N g U L.% j U.* 5.$.a > J.t.#.7.  p",
" p. .e.-.a L.s d.+ ; U U.= ,.o.g 0. . . ",
".  |. .e Q.s d.y d.s 1.=.% j.j ).  p.  p",
". . . . .  A 5 j ; ;.%.% U ^ #. .  p.  |",
" p p p p p | |.e.9 ) O +.e p.  p p.  p. "
};
