/* XPM */
static char *noname[] = {
/* width height ncolors chars_per_pixel */
"20 20 83 1",
/* colors */
"  c #2E0E0C",
". c #CE5A04",
"X c #CE5604",
"o c #1A0E0C",
"O c #CE5204",
"+ c #1A0A0C",
"@ c #1A060C",
"# c #06020C",
"$ c #BA4604",
"% c #BA3E04",
"& c #A64A04",
"* c #BA3A04",
"= c #A63E04",
"- c #A63A04",
"; c #A63604",
": c #923A04",
"> c #923204",
", c #7E2604",
"< c #6A2E04",
"1 c #6A2A04",
"2 c #561A04",
"3 c #4A1A0C",
"4 c #36160C",
"5 c #D65E04",
"6 c #D65A04",
"7 c #220A0C",
"8 c #C24E04",
"9 c #0E060C",
"0 c #C24A04",
"q c #0E020C",
"w c #C24604",
"e c #C24204",
"r c #060204",
"t c #AE4604",
"y c #9A3E04",
"u c #722E04",
"i c #722204",
"p c #4A1604",
"a c #3E120C",
"s c #2A0E0C",
"d c #CA5604",
"f c #CA5204",
"g c #CA4E04",
"h c #16060C",
"j c #CA4A04",
"k c #B64E04",
"l c #B64604",
"z c #B64204",
"x c #B63A04",
"c c #A24604",
"v c #A24204",
"b c #A23604",
"n c #8E3204",
"m c #7A2A04",
"M c #7A2604",
"N c #662A04",
"B c #662204",
"V c #5A220C",
"C c #521A04",
"Z c #32160C",
"A c #D25A04",
"S c #D25604",
"D c #1E0A0C",
"F c #BE4A04",
"G c #0A020C",
"H c #BE4204",
"J c #AA3E04",
"K c #AA3604",
"L c #963A04",
"P c #963204",
"I c #6E2204",
"U c #3A1A0C",
"Y c #3A120C",
"T c #260A0C",
"R c #C65604",
"E c #12060C",
"W c #C64A04",
"Q c #C64604",
"! c #B24E04",
"~ c #8A3204",
"^ c #763204",
"/ c #762604",
"( c #621E04",
/* pixels */
"#r#r#r#r#rr#r#r#r#r#",
"r#r#r#GhD+qr#r#r#r#r",
"r#r#GUum/(aTqr#r#r##",
"#rrqNLb-b>,CsGr#r#rr",
"##rN=z%%x-P,C7Grr###",
"rrZ=zwweHxbnIY9###rr",
"#r^lWgjQ%*;>m3Drr##r",
"r9y8fffWwxKP,CT##rr#",
"r+JROOOjw*KP,2TG##r#",
"ro&XAXOfw%;P,CTrrr#r",
"r9cd66Sf0%;>Mp@##r##",
"#r^R556Sgz;~ia@rr#rr",
"rrZ!XAA.f$-~B q#r##r",
"##rNkRd8FJ:mp+rr#rr#",
"r#r9<vttv:m3D##r##r#",
"#r#rr41^uVYhrrr##r#r",
"#r#rrrrEE9r###r##r##",
"r#r####rrrrrr##rr#rr",
"r#rrrrr#####rr##r###",
"#r##r##r##r####r#rrr"
};
