/* XPM */
static char *noname[] = {
/* width height ncolors chars_per_pixel */
"20 20 106 2",
/* colors */
"   c #BA6A2C",
" . c #EAB27C",
" X c #8E623C",
" o c #76624C",
" O c #825644",
" + c #120604",
" @ c #D29664",
" # c #5E3A34",
" $ c #DA8A44",
" % c #CE8A4C",
" & c #B6865C",
" * c #9E866C",
" = c #D2823C",
" - c #BA824C",
" ; c #CA7A34",
" : c #BE7A3C",
" > c #CA7634",
" , c #BE763C",
" < c #B27644",
" 1 c #3A2A24",
" 2 c #C2722C",
" 3 c #926E4C",
" 4 c #AE6A2C",
" 5 c #BA6624",
" 6 c #7E664C",
" 7 c #2A1A14",
" 8 c #B2661C",
" 9 c #965A3C",
" 0 c #8E6234",
" q c #7E564C",
" w c #82623C",
" e c #EEA664",
" r c #E69A5C",
" t c #DA9A64",
" y c #CE9A6C",
" u c #060204",
" i c #DE9254",
" p c #C68E64",
" a c #CA8A54",
" s c #763E1C",
" d c #B28A64",
" f c #4A3E2C",
" g c #4A3A2C",
" h c #C67E3C",
" j c #423224",
" k c #BA7644",
" l c #9A6E4C",
" z c #3A221C",
" x c #B66E2C",
" c c #EAA66C",
" v c #965634",
" b c #765A3C",
" n c #6A5A44",
" m c #CAA274",
" M c #E29E64",
" N c #924E1C",
" B c #C29A6C",
" V c #CE9664",
" C c #DE8E4C",
" Z c #CE823C",
" A c #B67E4C",
" S c #9E765C",
" D c #8A725C",
" F c #BE722C",
" G c #9A6E44",
" H c #F2AE6C",
" J c #32120C",
" K c #1E160C",
" L c #1E120C",
" P c #1E0E0C",
" I c #DEA26C",
" U c #725644",
" Y c #C69E7C",
" T c #160A04",
" R c #E2965C",
" E c #BE9674",
" W c #6A463C",
" Q c #020204",
" ! c #C29264",
" ~ c #663E24",
" ^ c #7E3A14",
" / c #AE8664",
" ( c #D6863C",
" ) c #CA8244",
" _ c #6A3214",
" ` c #C27E3C",
" ' c #4A321C",
" ] c #C27A3C",
" [ c #92765C",
" { c #BA7634",
" } c #C6722C",
" | c #AE723C",
".  c #BE6E24",
".. c #8E6A44",
".X c #EEB274",
".o c #E6A66C",
".O c #DAA674",
".+ c #120E0C",
".@ c #C69A74",
".# c #0A0204",
".$ c #62422C",
".% c #D28244",
".& c #C6824C",
".* c #CA7E3C",
".= c #AA7644",
".- c #86725C",
/* pixels */
" Q Q Q Q Q Q Q Q Q Q Q Q Q Q Q Q Q Q Q Q",
" Q Q Q Q Q Q Q Q Q Q Q Q Q Q Q Q Q Q Q Q",
" Q Q Q Q Q Q Q Q Q 7 W O q # T Q Q Q Q Q",
" Q Q Q Q Q Q Q P X y @ @ @ t k s.# Q Q Q",
" Q Q Q Q Q Q L S p t $ ) ) F 8   N + Q Q",
" Q Q Q Q Q Q U Y.O ! % ` ]. .  ) 5 ^ Q Q",
" Q Q Q Q Q L *.@ ! A : { , 2 > Z ; 5 J Q",
" Q Q Q Q Q 1 * d & - : ].* Z = } ; > _ Q",
" Q Q Q Q Q z [ l G A.& ` h R $ >.% R v Q",
" Q Q Q Q Q 7 6.. 0 | | 4 4 % ( = C H 9 Q",
" Q Q Q Q Q +.$ w X.= < x ,.* = $ r i ~ Q",
" Q Q Q Q Q Q z b 3 & & !.o c e M t.& + Q",
" Q Q Q Q Q Q u g D / V I ..X c I a ' Q Q",
" Q Q Q Q Q Q Q.# g.- / E Y m B d j Q Q Q",
" Q Q Q Q Q Q Q Q Q K g n o n f.+ Q Q Q Q",
" Q Q Q Q Q Q Q Q Q Q Q Q Q Q Q Q Q Q Q Q",
" Q Q Q Q Q Q Q Q Q Q Q Q Q Q Q Q Q Q Q Q",
" Q Q Q Q Q Q Q Q Q Q Q Q Q Q Q Q Q Q Q Q",
" Q Q Q Q Q Q Q Q Q Q Q Q Q Q Q Q Q Q Q Q",
" Q Q Q Q Q Q Q Q Q Q Q Q Q Q Q Q Q Q Q Q"
};
