/* XPM */
static char *noname[] = {
/* width height ncolors chars_per_pixel */
"20 20 95 2",
/* colors */
"   c #2A221C",
" . c #7E5E54",
" X c #221A14",
" o c #765A4C",
" O c #1A120C",
" + c #6E5644",
" @ c #6E5244",
" # c #E2AA4C",
" $ c #D6A654",
" % c #664E3C",
" & c #D6A254",
" * c #CE9E4C",
" = c #BE9264",
" - c #CE9A4C",
" ; c #B68E5C",
" : c #4A3A34",
" > c #AA8264",
" , c #42362C",
" < c #A27A5C",
" 1 c #9A7654",
" 2 c #3A2A24",
" 3 c #32261C",
" 4 c #866A54",
" 5 c #866654",
" 6 c #2A2214",
" 7 c #8A6A44",
" 8 c #8A6644",
" 9 c #7E624C",
" 0 c #F2B654",
" q c #765A44",
" w c #0E0A0C",
" e c #624E44",
" r c #060604",
" t c #C69A64",
" y c #060204",
" u c #D6A24C",
" i c #5A463C",
" p c #CA9A54",
" a c #BA8E44",
" s c #A27E54",
" d c #8E6E54",
" f c #866A4C",
" g c #261E1C",
" h c #FABE54",
" j c #7E6244",
" k c #725A4C",
" l c #16120C",
" z c #6A5644",
" x c #DEA64C",
" c c #624E3C",
" v c #D2A254",
" b c #624A3C",
" n c #BE9254",
" m c #B2865C",
" M c #B68A4C",
" N c #AA8254",
" B c #A27A4C",
" V c #362A24",
" C c #8A6E5C",
" Z c #2E261C",
" A c #261E14",
" S c #866644",
" D c #7A624C",
" F c #7A5E4C",
" G c #725644",
" H c #E6AE4C",
" J c #D69E64",
" K c #DAAA54",
" L c #DAA654",
" P c #020204",
" I c #D29E4C",
" U c #C69654",
" Y c #4E3E34",
" T c #B28654",
" R c #463A2C",
" E c #A6825C",
" W c #9E7A54",
" Q c #3E2E24",
" ! c #8A6A54",
" ~ c #8E6A44",
" ^ c #F6BA54",
" / c #1A1614",
" ( c #120E0C",
" ) c #665244",
" _ c #D6A25C",
" ` c #0A0A04",
" ' c #0A0604",
" ] c #5E4A3C",
" [ c #564234",
" { c #B68A64",
" } c #C6924C",
" | c #BA8E54",
".  c #BE8E44",
".. c #927254",
".X c #322624",
/* pixels */
" P P y P P P P P P P P P P P P P P y ' P",
" P y P y y y y y y y y y y y y y 3 c k l",
" P r r r r P r r r r r P r r / b 4 . ] r",
" P P P P P r P P P w ( ` P / . F 5 9 3 y",
" P P P y P r r l R q 9 @ 3 l Q A 9 [ r P",
" P y y r y y l ) 1 N T B j 2 y , o ( P r",
" P r P r r r e < | U } M N S   F X y P y",
" P P P P P V W n _ u * } - ~ G 3 r r y r",
" P P y y y ) ; $ K L I #.  j b P P P P P",
" P r P r r.. p & x u 0 u 8 < i r y r y r",
" P r P P r 1 p v # h # 7 T m : r P r P y",
" P P P P O.. | L ^ u 7 { U > 3 P P P y r",
" P y r ( + 5 p H a f | J = ! ` y y r P P",
" P r r ] Y Z M f ! | J t E.X y r r P P r",
" P y , F / w [ d { t = s , r P P P y P y",
" P X D % : k c Q D C z g r P y P y r P r",
" r [ d ! 9 , r P P y r y y P r r P r P P",
" X z D ] X y r y y r y r r r r P P P P r",
" / : 6 r P P P r P P P P P P y y y P P P",
" P P P P y y r P P r y P y P r r P r P r"
};
