/* XPM */
static char *noname[] = {
/* width height ncolors chars_per_pixel */
"20 20 116 2",
/* colors */
"   c #321624",
" . c #D2AE8C",
" X c #72625C",
" o c #D2AA8C",
" O c #2A121C",
" + c #2A0E1C",
" @ c #6A5A54",
" # c #CAA284",
" $ c #220A14",
" % c #6A5654",
" & c #220614",
" * c #62524C",
" = c #1A020C",
" - c #120204",
" ; c #BA9274",
" : c #FAD2AC",
" > c #523A3C",
" , c #B2826C",
" < c #927E74",
" 1 c #F2C6A4",
" 2 c #DEC6A4",
" 3 c #EABE9C",
" 4 c #42222C",
" 5 c #E2BA94",
" 6 c #E2B694",
" 7 c #8E6A5C",
" 8 c #CEB694",
" 9 c #DAB28C",
" 0 c #32161C",
" q c #725E54",
" w c #C6A68C",
" e c #725A54",
" r c #725654",
" t c #22060C",
" y c #22020C",
" u c #BE9A84",
" i c #6A4E4C",
" p c #1A0204",
" a c #B6927C",
" s c #F6DAB4",
" d c #FACEA4",
" f c #523634",
" g c #FACAA4",
" h c #462E3C",
" j c #F2C69C",
" k c #9E7A64",
" l c #F2C29C",
" z c #4A262C",
" x c #966E5C",
" c c #DEBA9C",
" v c #8E6A54",
" b c #D6B294",
" n c #82665C",
" m c #CEAA8C",
" M c #6E5E5C",
" N c #C6A684",
" B c #C69E84",
" V c #16020C",
" C c #FEE2B4",
" Z c #B69274",
" A c #FEDEB4",
" S c #564644",
" D c #B68E74",
" F c #AE866C",
" G c #EAD2B4",
" H c #AE826C",
" J c #4E363C",
" K c #4E323C",
" L c #EECAA4",
" P c #927264",
" I c #765E5C",
" U c #2E0E1C",
" Y c #765A5C",
" T c #C2A68C",
" R c #260A14",
" E c #6E5654",
" W c #260614",
" Q c #C69E7C",
" ! c #1E020C",
" ~ c #160204",
" ^ c #A69284",
" / c #5E4244",
" ( c #FED6AC",
" ) c #F2D6B4",
" _ c #AE8264",
" ` c #968274",
" ' c #462E2C",
" ] c #9A7664",
" [ c #E2C2A4",
" { c #9A7264",
" } c #DABE9C",
" | c #867264",
".  c #E6BA94",
".. c #361A1C",
".X c #CAAA8C",
".o c #765E54",
".O c #26060C",
".+ c #C29E84",
".@ c #26020C",
".# c #C29A84",
".$ c #1E0204",
".% c #12020C",
".& c #B28A74",
".* c #FAD6B4",
".= c #523E44",
".- c #4A363C",
".; c #AA7E6C",
".: c #F6C69C",
".> c #422A34",
"., c #8E7664",
".< c #9A725C",
".1 c #E2BE9C",
".2 c #8E7264",
".3 c #E2BA9C",
".4 c #DAB694",
".5 c #321A24",
/* pixels */
".@ y y y.$.$ !.$.$.$ ! p.$ = p p p ! ! !",
" y y.$ p.$ !.$ ! !.O p p = p = = = p p p",
" y.$ ! ! p.$ f v.< r z y p ~ p p = = = =",
" y !.$.$ 0 a 9 Q , n / U V = V V ~ p p.$",
" ! ! =.. 8 l 6 # , n i...$ ~ ~ = = V V =",
" y.$ y N g l 9.# , x r 4 & V = ~ ~ p p p",
" !.$.o ( d l 9.# _ n e 4 t ~ V = = = V =",
" ! y 2 :.: 3 . Q F P X z U V p ~ ~ ~ ~ ~",
" y J C d.: 3 ..+ F P * f U V.% V V V V =",
" ! Y ( : j.  N u H x e K W V - - - ~ ~ ~",
" ! ` A : l 5 o.+.; x E K R p - -.% - V V",
" ! < A : 1.3 m u F 7 r.- +.% - - - V ~ ~",
" ! % A.* L.  b B ; { e K R V.% - -.% V ~",
" ! 0 s A : 1 9 m.& k I.= &.% -.%.% ~ - V",
" ! ! ^ C : 1.4 w D k q h & - - - - V ~ =",
" ! =.5 G.* L c w D ] M.> & V V ~ V ~ V ~",
" y.$.$ / ) L.1.X.&.2 @.> ~ -.% - - ~ V V",
" ! = V ~ > } [.X Z., *   V V - V V V ~ =",
" ! ! = p V O | T D | S & ~ V ~ p ~ V ~ V",
" ! !.$ !.$ p = $ '.- O p V ~ V V = ~ ~ ="
};
