/* XPM */
static char *noname[] = {
/* width height ncolors chars_per_pixel */
"20 20 163 2",
/* colors */
"   c #3E161C",
" . c #CEAE9C",
" X c #7A5A64",
" o c #EAAE7C",
" O c #7A5664",
" + c #361214",
" @ c #360E14",
" # c #F6EEE4",
" $ c #72525C",
" % c #2E0E0C",
" & c #724E5C",
" * c #A292AC",
" = c #EEE6DC",
" - c #FEEEC4",
" ; c #F2EACC",
" : c #AA968C",
" > c #C2927C",
" , c #E6DED4",
" < c #FADEAC",
" 1 c #A28684",
" 2 c #DECECC",
" 3 c #A27E84",
" 4 c #F2CEA4",
" 5 c #8E7684",
" 6 c #927674",
" 7 c #927274",
" 8 c #DABEB4",
" 9 c #CEBEBC",
" 0 c #766694",
" q c #DEC6A4",
" w c #D2C2AC",
" e c #A26E5C",
" r c #D2BAAC",
" t c #DEB6A4",
" y c #8A6A6C",
" u c #7E5E74",
" i c #CAB2A4",
" p c #FAFAF4",
" a c #DAB28C",
" s c #765A6C",
" d c #B6A6A4",
" f c #C2A29C",
" g c #360E0C",
" h c #6E4E64",
" j c #F6EEDC",
" k c #664A5C",
" l c #D69A74",
" z c #66425C",
" x c #B29A8C",
" c c #6A4A4C",
" v c #5E4654",
" b c #A69294",
" n c #5E3A54",
" m c #9E828C",
" M c #56324C",
" N c #927E94",
" B c #5A3A3C",
" V c #967E84",
" C c #DECAC4",
" Z c #D2CACC",
" A c #4E2A44",
" S c #8A768C",
" D c #523234",
" F c #522A34",
" G c #4A222C",
" H c #CEBAB4",
" J c #DEBE9C",
" K c #866674",
" L c #96625C",
" P c #7E626C",
" I c #3A1A1C",
" U c #CAB29C",
" Y c #CAAE9C",
" T c #3A121C",
" R c #320E14",
" E c #CEA68C",
" W c #B6A29C",
" Q c #F2EAE4",
" ! c #AA9AA4",
" ~ c #D2967C",
" ^ c #664A54",
" / c #AE9694",
" ( c #664654",
" ) c #663E54",
" _ c #EEE2CC",
" ` c #9E8284",
" ' c #F6D6AC",
" ] c #DECEBC",
" [ c #967A7C",
" { c #D2C6C4",
" } c #C6BACC",
" | c #A67264",
".  c #8E7274",
".. c #CABEBC",
".X c #8E6E74",
".o c #BEB6C4",
".O c #4A2224",
".+ c #4A1E24",
".@ c #86666C",
".# c #C2B2B4",
".$ c #FEFEFC",
".% c #86626C",
".& c #7A5E74",
".* c #C6B2A4",
".= c #7E5E64",
".- c #3A1214",
".; c #FAF6E4",
".: c #765A5C",
".> c #BEA69C",
"., c #825254",
".< c #BE9E9C",
".1 c #320E0C",
".2 c #6A4E64",
".3 c #320A0C",
".4 c #6A4A64",
".5 c #E69E74",
".6 c #6A4664",
".7 c #B69E94",
".8 c #B69A94",
".9 c #6E4A54",
".0 c #E6DEE4",
".q c #664A4C",
".w c #EAE2D4",
".e c #EEDEC4",
".r c #B28E7C",
".t c #A68A84",
".y c #A68684",
".u c #E2D2CC",
".i c #D6CED4",
".p c #9E7A7C",
".a c #EACAAC",
".s c #DECAB4",
".d c #967674",
".f c #D2C2BC",
".g c #D2BEBC",
".h c #CABAB4",
".j c #8E666C",
".k c #CEB6A4",
".l c #E6B294",
".z c #866264",
".x c #C2AAAC",
".c c #B6AAB4",
".v c #DEAE8C",
".b c #F6F2EC",
".n c #725664",
".m c #725264",
".M c #6A465C",
".N c #AA9294",
".B c #624254",
".V c #BA927C",
".C c #664244",
".Z c #AE8E84",
".A c #968694",
".S c #5A364C",
".D c #E2D6C4",
".F c #D6CECC",
".G c #927A7C",
".H c #DAC6BC",
".J c #4A263C",
".K c #FACE8C",
".L c #4E222C",
".P c #D6C2A4",
".I c #BEAEB4",
/* pixels */
".1.3.1.1.1.1.1.1.1.1.1.1.1.1 g g g g g @",
".3.1.3.3.3.1.1.q.j.d 7.C.-.3.3.3.3.3.3.3",
".3 % % %.3.: Z ; t.l 4.a Y ( R R @ @ @ @",
" %.3.3 @.Z - <.K l > E.j.& u.= @ R.3 @.3",
" % %.1 ` ' a | L.V.v ~ (.m.2.k c R.3 @ @",
".3.3.S r f Y.* / q J X [ :.h m K.L R.3 R",
" % % N :.#.u _ w = ].7.N.m.@.t 1.9 R.3 @",
".3 I.o S 6 x.P _ _ U.7 1.B.B.@.<.d T R.1",
".3.C.c.I b V a 4 Y.z., y X.S z.@.p.O.3 @",
" % v *.# 5 H.5 o e.9.S A n h ( z.m F R R",
" % ^ 0.G s.B.N '.r O M.J A.n.G ).4 F.3 R",
" % B } N...h.@.. #.w 9 $.= X P k & G R g",
" % I.0 !.# / $ i W.$.b. .< Y.  b.6 +.3 @",
" g.1.A Z.x.f d , p.e.>.X 1.F.D r ) @ R.1",
".3.3 D.w {.g #.D j.s ..8.y & 3 O.+ R.3 @",
".1 R.3 P.# 2.f = Q.w =.H Y 8.<.M.3.3 @.3",
".3.1 R @ m.;.$.$.$.$.$ p.; C.% + @.3 @ @",
".1.3.3 @ @ $.i.$.$.$.$ p.u O @.3.3 @.3.3",
".3.1.1.1.1.3 @ ^ V b V.9   R @ @.3 @ @ @",
" %.3.3.3.3 R.1.1 %.3.3 % %.3.3.3 @.3.3 g"
};
