/* XPM */
static char *noname[] = {
/* width height ncolors chars_per_pixel */
"20 20 95 2",
/* colors */
"   c #765674",
" . c #7A5264",
" X c #BE8EB4",
" o c #724A5C",
" O c #B686AC",
" + c #664664",
" @ c #6A3E54",
" # c #563E54",
" $ c #563A54",
" % c #4E3A4C",
" & c #4E364C",
" * c #9E7294",
" = c #9E6E94",
" - c #522E3C",
" ; c #3E2A3C",
" : c #D2A6D4",
" > c #362234",
" , c #CA9ECC",
" < c #925A74",
" 1 c #2E1E2C",
" 2 c #1E121C",
" 3 c #6E4A64",
" 4 c #B28AB4",
" 5 c #0E0A0C",
" 6 c #C27A9C",
" 7 c #0E060C",
" 8 c #A27AA4",
" 9 c #060604",
" 0 c #060204",
" q c #56364C",
" w c #F6AEDC",
" e c #E2AEDC",
" r c #4E2E44",
" t c #826284",
" y c #D29ECC",
" u c #7A5A7C",
" i c #D696BC",
" p c #865674",
" a c #2E1A24",
" s c #725A74",
" d c #725274",
" f c #26161C",
" g c #BA8AB4",
" h c #624A64",
" j c #160A0C",
" k c #5E3A4C",
" l c #A27A9C",
" z c #523A54",
" x c #F2B6E4",
" c c #5E364C",
" v c #AE7294",
" b c #E2AAD4",
" n c #926A8C",
" m c #462634",
" M c #CEA2D4",
" N c #322634",
" B c #322234",
" V c #825E7C",
" C c #8E5A74",
" Z c #2A222C",
" A c #2A1A2C",
" S c #CA92BC",
" D c #1A121C",
" F c #C682A4",
" G c #62465C",
" H c #0A0A0C",
" J c #0A060C",
" K c #EEBAEC",
" L c #9E7AA4",
" P c #020204",
" I c #E6B6E4",
" U c #F2B2DC",
" Y c #E6B2E4",
" T c #DEAEDC",
" R c #4A2E44",
" E c #EE9EC4",
" W c #8A5E7C",
" Q c #C696C4",
" ! c #7A526C",
" ~ c #BE92BC",
" ^ c #22121C",
" / c #7E4A5C",
" ( c #1A0E14",
" ) c #AE82AC",
" _ c #120A0C",
" ` c #56425C",
" ' c #B27A9C",
" ] c #0A0604",
" [ c #AA7694",
" { c #9E769C",
" } c #967294",
" | c #D6A2CC",
".  c #3A1E2C",
".. c #DA96BC",
".X c #8A5674",
/* pixels */
" P P P P P P P P P P P P ( a ( P P P P P",
" P P P P P P P P P P 1 o / - j P P P P P",
" P P P P P P P P 5 W v.X @ m 7 P P P P P",
" P P P P P P P _ O.. [ p k.  5 P P P P P",
" P P P P P P 9 l b X n 3 R ^ P P P P P P",
" P P P P P P % M y O n + ; D P P P P P P",
" P P P P P 9 4 : ~ 8 t G m _ P P P P P P",
" P P P P P N T Y Q L u # B 5 P P P P P P",
" P P P P P h K I y ) V $ 1 J P P P P P P",
" P P P P P   K e Q {   z 1 9 P P P P P P",
" P P P P P s T | g = d & f P P P P P P P",
" P P P P P ` , , X } d & A 0 P P P P P P",
" P P P P P Z M : X {   # B J P P P P P P",
" P P P P P 0 4 Y | O n + > ] P P P P P P",
" P P P P P P % x U S = 3 ; _ P P P P P P",
" P P P P P P P * w i v ! r ^ P P P P P P",
" P P P P P P P H ' E F C q ^ P P P P P P",
" P P P P P P P P 0 . 6 < c f P P P P P P",
" P P P P P P P P P P 2 c @.  0 P P P P P",
" P P P P P P P P P P P P 0 ( ] P P P P P"
};
