/* XPM */
static char *noname[] = {
/* width height ncolors chars_per_pixel */
"20 20 201 2",
/* colors */
"   c #12222C",
" . c #121A2C",
" X c #96B2B4",
" o c #5E6E5C",
" O c #0A1E24",
" + c #161A1C",
" @ c #5E665C",
" # c #0A1A24",
" $ c #16161C",
" % c #0A1624",
" & c #A6AA9C",
" * c #8EA6AC",
" = c #3E6664",
" - c #4A625C",
" ; c #0E0E14",
" : c #AAA28C",
" > c #425E54",
" , c #7E969C",
" < c #3A524C",
" 1 c #2E5254",
" 2 c #9A927C",
" 3 c #324E44",
" 4 c #BEDAD4",
" 5 c #324A44",
" 6 c #264A4C",
" 7 c #324644",
" 8 c #7A8E84",
" 9 c #C2D2C4",
" 0 c #1E3E44",
" q c #8A866C",
" w c #7E8274",
" e c #BACABC",
" r c #AECAC4",
" t c #AEC6C4",
" y c #BAC2BC",
" u c #16363C",
" i c #5E827C",
" p c #222E34",
" a c #62766C",
" s c #0E2A34",
" d c #6E7264",
" f c #426E74",
" g c #121E24",
" h c #121A24",
" j c #52665C",
" k c #466664",
" l c #0A161C",
" z c #0A121C",
" x c #9AAA9C",
" c c #0A0E1C",
" v c #9AA69C",
" b c #92A294",
" n c #9E9E8C",
" m c #42564C",
" M c #365654",
" N c #2A565C",
" B c #365254",
" V c #729E9C",
" C c #8A968C",
" Z c #2E524C",
" A c #DEDAC4",
" S c #D2DACC",
" D c #829284",
" F c #1A464C",
" G c #32423C",
" H c #BECECC",
" J c #868A74",
" K c #2A3E34",
" L c #C2CABC",
" P c #B6CAC4",
" I c #2A3A34",
" U c #C2C6BC",
" Y c #1E3A3C",
" T c #1E363C",
" R c #BAC2B4",
" E c #22322C",
" W c #BABEB4",
" Q c #A2BEC4",
" ! c #162E34",
" ~ c #467A84",
" ^ c #B2B6AC",
" / c #3E767C",
" ( c #627264",
" ) c #1A2224",
" _ c #0E222C",
" ` c #92BAB4",
" ' c #1A1E24",
" ] c #0E1E2C",
" [ c #5A6A5C",
" { c #12161C",
" } c #12121C",
" | c #061224",
".  c #526254",
".. c #DEEEE4",
".X c #3A6264",
".o c #0A0E14",
".O c #82A6A4",
".+ c #0A0A14",
".@ c #0A0614",
".# c #325A5C",
".$ c #32565C",
".% c #9E9A84",
".& c #929A8C",
".* c #869A94",
".= c #3E4A54",
".- c #2A5254",
".; c #3A4A3C",
".: c #D2D6C4",
".> c #2E4A44",
"., c #2E4644",
".< c #2E4244",
".1 c #22424C",
".2 c #26423C",
".3 c #BECEC4",
".4 c #1A4244",
".5 c #1A3E44",
".6 c #263A3C",
".7 c #6E867C",
".8 c #56828C",
".9 c #1E2E34",
".0 c #5A727C",
".q c #162A2C",
".w c #46767C",
".e c #566664",
".r c #0E1624",
".t c #AAAE9C",
".y c #566264",
".u c #0E1224",
".i c #426664",
".p c #2E6264",
".a c #9A9E8C",
".s c #325654",
".d c #D6DED4",
".f c #869E8C",
".g c #325254",
".h c #3E4E4C",
".j c #26465C",
".k c #7A8E94",
".l c #2A4A4C",
".z c #2A464C",
".x c #669294",
".c c #728E8C",
".v c #D2D2BC",
".b c #224644",
".n c #D2CEBC",
".m c #224244",
".M c #16424C",
".N c #5E828C",
".B c #BEC6BC",
".V c #1A3A3C",
".C c #6E8274",
".Z c #1A363C",
".A c #0E3644",
".S c #1A323C",
".D c #C2C2AC",
".F c #123234",
".G c #122E34",
".H c #66766C",
".J c #122A34",
".K c #5E7664",
".L c #A2B6B4",
".P c #5E7264",
".I c #467274",
".U c #0A222C",
".Y c #6A6A5C",
".T c #0A1E2C",
".R c #161A24",
".E c #A6AEA4",
".W c #3E6A6C",
".Q c #4A6664",
".! c #0E161C",
".~ c #0E121C",
".^ c #0E0E1C",
"./ c #AAA694",
".( c #9EA69C",
".) c #0E0A1C",
"._ c #E6EADC",
".` c #7EA6A4",
".' c #96A294",
".] c #42565C",
".[ c #7EA2A4",
".{ c #060614",
".} c #3A5E54",
".| c #D2EADC",
"X  c #2E5A5C",
"X. c #3A5654",
"XX c #2E565C",
"Xo c #32524C",
"XO c #C2DACC",
"X+ c #CED6C4",
"X@ c #1E424C",
"X# c #728A84",
"X$ c #668A8C",
"X% c #2E3A34",
"X& c #B2C6BC",
"X* c #1A3234",
"X= c #6E7A6C",
"X- c #6E766C",
"X; c #B6BAAC",
"X: c #AABAB4",
"X> c #9EBABC",
/* pixels */
" ).R {.~.~.^.^.^.^.).o.+.+ c ; ;.o ;.~ +",
" '.~.^.^.+.o c.+.+ %.r c.).+.+.+.).+ ; }",
" +.~ c.^.^ ..0 *X> Q X.[.N B ..+.+.+.o }",
" +.~.^.^.e HX+ yX&.L.c.W = f ~.j c.+.).~",
" }.o.u ,.B.E x C.tX& i.XX  N.I.8 f z ;.~",
" {.^.k W./ C bX: eX+ H t.` XX>.x.p.A.+ }",
" }.] U.(.t L.n._.:.B.3.d.. r.x.4.A.M.T.~",
" +X: 9X;.a n & J q.D A S.3.. 4 V / F.5.^",
".=.v AX; w ( o aX#.B P.f C R S.| ` f.p g",
".y n & : 8.& v ^.a w DX=.H D.' vXO.O.w.S",
".yX- @.  2.%.% @ I E E.q K.K.C.>.C.*X$  ",
".y [.;X%X% d m.q g.r.! l ] I o.}.2 ZXo h",
".h.  G.9.q.Y < _.q # # # O.G 7.7.i 6.5.~",
" p > K.9X* w., !   O O.U.U.FX* T >.W.G ;",
" { - 5.6 T.H TX* !.S s.F u u.V 0.bX  | ;",
" } p j.,.h [.ZX* T.V.S.Z.m 3.#.l.V.U.+ c",
" $.o.h.P -.H < 3 5 M MX. -.#XXX@.U.{.@ ;",
" h.^.+.< k.Q M.g.sX..gXX 1 6 Y _.{.{.@.^",
" $ ;.+.@ g.1XX.$.#.-.z.b.4 s |.@.{.{.{ ;",
" + c.+.@.@.@ c ].J.J.U %.+.{.{.{.@.+.o.^"
};
