/* XPM */
static char *noname[] = {
/* width height ncolors chars_per_pixel */
"20 20 162 2",
/* colors */
"   c #362214",
" . c #A2623C",
" X c #8E5A3C",
" o c #8E563C",
" O c #825644",
" + c #76564C",
" @ c #1A120C",
" # c #865234",
" $ c #7A523C",
" % c #7A4E3C",
" & c #6E4E44",
" * c #6E4A44",
" = c #EA9E54",
" - c #7E522C",
" ; c #66463C",
" : c #5A4644",
" > c #5A4244",
" , c #E2964C",
" < c #523E3C",
" 1 c #523A3C",
" 2 c #DA8644",
" 3 c #CE824C",
" 4 c #3E363C",
" 5 c #D27E3C",
" 6 c #C67E44",
" 7 c #C67A44",
" 8 c #2A2A3C",
" 9 c #BE723C",
" 0 c #32221C",
" q c #321E1C",
" w c #AA663C",
" e c #9E6244",
" r c #92624C",
" t c #A26234",
" y c #965E3C",
" u c #8A5A44",
" i c #825A3C",
" p c #82563C",
" a c #82523C",
" s c #765244",
" d c #764E44",
" f c #6A4E4C",
" g c #6E4E3C",
" h c #6E4A3C",
" j c #624644",
" k c #724E2C",
" l c #D28E5C",
" z c #5A423C",
" x c #4E4244",
" c c #D68A4C",
" v c #D6864C",
" b c #CA8654",
" n c #523A34",
" m c #46363C",
" M c #CE8244",
" N c #CE7E44",
" B c #C27A4C",
" V c #322E3C",
" C c #C6763C",
" Z c #A27254",
" A c #A26E54",
" S c #3A2A1C",
" D c #BE7234",
" F c #B26E3C",
" G c #B26A3C",
" H c #A66A44",
" J c #321E14",
" K c #9E623C",
" L c #925E44",
" P c #1E1614",
" I c #8A5A3C",
" U c #8A563C",
" Y c #16120C",
" T c #825234",
" R c #764E3C",
" E c #764A3C",
" W c #5E4A4C",
" Q c #E69A54",
" ! c #6E4634",
" ~ c #62463C",
" ^ c #62423C",
" / c #564244",
" ( c #DE924C",
" ) c #DE8E4C",
" _ c #423A44",
" ` c #D68644",
" ' c #CA824C",
" ] c #52362C",
" [ c #3A323C",
" { c #C67634",
" } c #362A24",
" | c #BA723C",
".  c #1E2634",
".. c #A26A4C",
".X c #966654",
".o c #3A2614",
".O c #9A6244",
".+ c #925E3C",
".@ c #865A44",
".# c #7A564C",
".$ c #1E120C",
".% c #120E14",
".& c #7E523C",
".* c #724E44",
".= c #6A4A3C",
".- c #6A463C",
".; c #5E4644",
".: c #E6964C",
".> c #020204",
"., c #DA9254",
".< c #563E3C",
".1 c #4A3E44",
".2 c #664224",
".3 c #DE8A44",
".4 c #D2864C",
".5 c #C68254",
".6 c #CA7E44",
".7 c #BE7A4C",
".8 c #2E2E3C",
".9 c #3E2E24",
".0 c #C2763C",
".q c #C2723C",
".w c #1A263C",
".e c #9E6E54",
".r c #BA6E34",
".t c #AE6E3C",
".y c #AE6A3C",
".u c #A26A44",
".i c #AE663C",
".p c #A26644",
".a c #A66634",
".s c #9A5E3C",
".d c #8E5E44",
".f c #925A34",
".g c #86563C",
".h c #7A5244",
".j c #6E524C",
".k c #6E4E4C",
".l c #7E4E34",
".z c #724A3C",
".x c #664A44",
".c c #664644",
".v c #5A464C",
".b c #E29654",
".n c #5E463C",
".m c #524244",
".M c #523E44",
".N c #6E4224",
".B c #DA8A4C",
".V c #4A3A3C",
".C c #5A3A24",
".Z c #D28244",
".A c #BA7E54",
".S c #423234",
".D c #36323C",
".F c #CA7A3C",
".G c #B2764C",
".H c #B2724C",
".J c #B66E3C",
".K c #AA6E44",
".L c #322224",
".P c #9E6A4C",
/* pixels */
".>.>.>.>.>.>.o -.a F.a.f.N  .>.>.>.>.>.>",
".>.>.>.> J.t ).3.Z G M.B.G.y K J.>.>.>.>",
".>.>.>.C.F.B ) , ).4., b f.n.# H.2.>.>.>",
".>.>.C 7 v.b Q = c.4 B.e.;.D.w.V.P k.>.>",
".> J '.4 2 (.b.b.:.Z c.A.V. .w.w & l.o.>",
".>.p c 3 M.: Q =.b.0 B b < V.  4.m.X.G.>",
" 0.7 3.F.4.B ) Q c ` ' g ^ 4 8 4 W W.5 S",
" ! 9 3 N 5.Z v ) ) c.p s / [ 8.D : + A i",
" X 6 ' 3 M.4 ) `.Z.K u z j.1.8.8 x.j...u",
" e | N C t 7 `.6 F.d ; O.M.;.V _.1 f.H.7",
" u.J.6.0.J.F 5 | ..&.< $.<.M >.;.v f.P.G",
" ] X 9 {.0 C C G e e.p.@.c ; <.x : f.k R",
".L 1 a.i {.F.q |.O p h.h.h d *.<.V / > }",
" P R ! E w.r D.r w e a p.@.* ~.= m.< /.%",
".> !.g T U.s.i.y.y.y L.d.@ z ~ < / ;.S.>",
".>.$ # #.g X.+ y . I n.- a % R n ; ; @.>",
".>.>  .l T # o.f.s y I.+.+ a d R $ q.>.>",
".>.>.> q.N E h R O u o U O.& h h 0.>.>.>",
".>.>.>.> Y ] ;.- E $.z.h +.#.<.%.>.>.>.>",
".>.>.>.>.>.> @.9.n r Z.e h 0.>.>.>.>.>.>"
};
